<?xml version="1.0" standalone="no"?>
<!DOCTYPE svg PUBLIC "-//W3C//DTD SVG 20010904//EN"
 "http://www.w3.org/TR/2001/REC-SVG-20010904/DTD/svg10.dtd">
<svg version="1.0" xmlns="http://www.w3.org/2000/svg"
 width="640.000000pt" height="640.000000pt" viewBox="0 0 640.000000 640.000000"
 preserveAspectRatio="xMidYMid meet">
<metadata>
Created by potrace 1.11, written by Peter Selinger 2001-2013
</metadata>
<g transform="translate(0.000000,640.000000) scale(0.100000,-0.100000)"
fill="#000000" stroke="none">
<path d="M2970 5924 c-21 -4 -148 -22 -280 -40 -437 -60 -924 -264 -1236 -519
-162 -132 -361 -345 -447 -477 -198 -307 -300 -516 -375 -768 -31 -104 -66
-247 -77 -312 -3 -18 -10 -58 -15 -88 -38 -220 -52 -509 -36 -725 19 -257 87
-608 153 -784 209 -559 634 -1028 1223 -1348 241 -131 617 -255 875 -288 20
-2 56 -7 78 -11 107 -15 237 -21 402 -18 99 2 191 6 205 8 14 2 57 7 95 10 39
4 77 9 85 11 8 3 31 6 50 9 71 9 239 47 358 81 411 117 791 336 1071 616 382
382 640 941 721 1564 23 170 25 218 24 475 -2 310 -18 458 -80 705 -88 357
-229 650 -442 925 -63 80 -256 282 -331 344 -184 155 -481 326 -727 420 -111
42 -304 100 -400 120 -93 20 -348 66 -399 72 -22 3 -51 8 -65 10 -34 7 -398
13 -430 8z"/>
</g>
</svg>
